<svg xmlns="http://www.w3.org/2000/svg" viewBox="0 0 48 48">
  <defs><linearGradient id="panel" x1="7" y1="8" x2="41" y2="40" gradientUnits="userSpaceOnUse"><stop stop-color="#FFF1B8"/><stop offset=".45" stop-color="#B6E7C9"/><stop offset="1" stop-color="#9BD1FF"/></linearGradient><linearGradient id="pin" x1="27" y1="9" x2="39" y2="31" gradientUnits="userSpaceOnUse"><stop stop-color="#FF6A3D"/><stop offset="1" stop-color="#D7193F"/></linearGradient></defs>
  <path fill="url(#panel)" d="m6.5 13.2 11.4-5 12.2 4.8 11.4-5.2v28l-11.4 5.4-12.2-4.9-11.4 5.1V13.2Z"/>
  <path fill="#F4C542" d="M6.5 13.2 17.9 8v28.3L6.5 41.4V13.2Z" opacity=".95"/><path fill="#31A853" d="m17.9 8 12.2 4.9v28.3l-12.2-4.9V8Z" opacity=".94"/><path fill="#4A90E2" d="m30.1 12.9 11.4-5.1v28l-11.4 5.4V12.9Z" opacity=".95"/>
  <path fill="none" stroke="#fff" stroke-linecap="round" stroke-width="2.2" d="M11 26c4.7-3 8.3-3.2 11.7-.6 4.1 3.1 8.1 2.8 12.8-1.2"/>
  <path fill="url(#pin)" d="M33.6 8.2c-4.9 0-8.8 3.8-8.8 8.5 0 6.7 8.8 15 8.8 15s8.8-8.3 8.8-15c0-4.7-3.9-8.5-8.8-8.5Z"/><circle cx="33.6" cy="16.8" r="3.7" fill="#fff"/>
</svg>
