<svg xmlns="http://www.w3.org/2000/svg" viewBox="0 0 48 48">
  <defs>
    <linearGradient id="pin" x1="14" y1="6" x2="34" y2="42" gradientUnits="userSpaceOnUse"><stop stop-color="#FF6A3D"/><stop offset=".55" stop-color="#E42D2D"/><stop offset="1" stop-color="#B4132D"/></linearGradient>
    <radialGradient id="glow" cx="0" cy="0" r="1" gradientTransform="matrix(14 0 0 7 24 40)" gradientUnits="userSpaceOnUse"><stop stop-color="#1FB6FF" stop-opacity=".34"/><stop offset="1" stop-color="#1FB6FF" stop-opacity="0"/></radialGradient>
  </defs>
  <ellipse cx="24" cy="40" rx="14" ry="7" fill="url(#glow)"/>
  <path fill="url(#pin)" d="M24 4.5c-7.3 0-13.2 5.8-13.2 13 0 9.9 13.2 25.8 13.2 25.8s13.2-15.9 13.2-25.8c0-7.2-5.9-13-13.2-13Z"/>
  <path fill="#FFB199" d="M17.2 11.7c2.2-2.6 5.8-3.8 9.2-3.1-4.6.7-8.2 4.5-8.8 9.1-.3 2.2-3 2-3.1-.2-.1-2 .9-4 2.7-5.8Z" opacity=".72"/>
  <circle cx="24" cy="17.7" r="7.7" fill="#fff"/><circle cx="24" cy="17.7" r="4.1" fill="#0B57D0"/>
</svg>
