<svg xmlns="http://www.w3.org/2000/svg" viewBox="0 0 24 24">
  <path fill="#4285F4" d="M22.1 12.2c0-.7-.1-1.3-.2-1.9H12v3.8h5.7c-.3 1.3-1 2.4-2.1 3.1v2.6h3.4c2-1.8 3.1-4.5 3.1-7.6Z"/>
  <path fill="#34A853" d="M12 22c2.8 0 5.2-.9 7-2.6l-3.4-2.6c-.9.6-2.1 1-3.6 1-2.8 0-5.1-1.9-5.9-4.4H2.6v2.7C4.3 19.6 7.9 22 12 22Z"/>
  <path fill="#FBBC05" d="M6.1 13.4a6.1 6.1 0 0 1 0-3.8V6.9H2.6a10 10 0 0 0 0 10.2l3.5-2.7Z"/>
  <path fill="#EA4335" d="M12 6.2c1.5 0 2.9.5 4 1.6l3-3A10 10 0 0 0 2.6 6.9l3.5 2.7C6.9 8.1 9.2 6.2 12 6.2Z"/>
</svg>
